HIERARCHY
ROOT Hips
{
	OFFSET 0.000000 0.000000 0.000000
	CHANNELS 6 Xposition Yposition Zposition Zrotation Yrotation Xrotation 
	JOINT LowerBack
	{
		OFFSET 0.000000 0.000000 0.000000
		CHANNELS 3 Zrotation Yrotation Xrotation
		JOINT Spine
		{
			OFFSET 0.028270 2.035590 -0.193380
			CHANNELS 3 Zrotation Yrotation Xrotation
			JOINT Spine1
			{
				OFFSET 0.056720 2.048850 -0.042750
				CHANNELS 3 Zrotation Yrotation Xrotation
				JOINT Neck
				{
					OFFSET 0.000000 0.000000 0.000000
					CHANNELS 3 Zrotation Yrotation Xrotation
					JOINT Neck1
					{
						OFFSET -0.054170 1.746240 0.172020
						CHANNELS 3 Zrotation Yrotation Xrotation
						JOINT Head
						{
							OFFSET 0.104070 1.761360 -0.123970
							CHANNELS 3 Zrotation Yrotation Xrotation
							End Site
							{
								OFFSET 0.000000 0.000000 0.000000
							}
						}
					}
				}
				JOINT LeftShoulder
				{
					OFFSET 0.000000 0.000000 0.000000
					CHANNELS 3 Zrotation Yrotation Xrotation
					JOINT LeftArm
					{
						OFFSET 3.362410 1.200890 -0.311210
						CHANNELS 3 Zrotation Yrotation Xrotation
						JOINT LeftForeArm
						{
							OFFSET 4.983000 -0.000000 -0.000000
							CHANNELS 3 Zrotation Yrotation Xrotation
							JOINT LeftHand
							{
								OFFSET 3.483560 -0.000000 -0.000000
								CHANNELS 3 Zrotation Yrotation Xrotation
								JOINT LeftFingerBase
								{
									OFFSET 0.000000 0.000000 0.000000
									CHANNELS 3 Zrotation Yrotation Xrotation
									JOINT LeftHandIndex1
									{
										OFFSET 0.715260 -0.000000 -0.000000
										CHANNELS 3 Zrotation Yrotation Xrotation
										End Site
										{
											OFFSET 0.000000 0.000000 0.000000
										}
									}
								}
								JOINT LThumb
								{
									OFFSET 0.000000 0.000000 0.000000
									CHANNELS 3 Zrotation Yrotation Xrotation
									End Site
									{
										OFFSET 0.000000 0.000000 0.000000
									}
								}
							}
						}
					}
				}
				JOINT RightShoulder
				{
					OFFSET 0.000000 0.000000 0.000000
					CHANNELS 3 Zrotation Yrotation Xrotation
					JOINT RightArm
					{
						OFFSET -3.136600 1.374050 -0.404650
						CHANNELS 3 Zrotation Yrotation Xrotation
						JOINT RightForeArm
						{
							OFFSET -5.241900 -0.000000 -0.000000
							CHANNELS 3 Zrotation Yrotation Xrotation
							JOINT RightHand
							{
								OFFSET -3.444170 -0.000000 -0.000000
								CHANNELS 3 Zrotation Yrotation Xrotation
								JOINT RightFingerBase
								{
									OFFSET 0.000000 0.000000 0.000000
									CHANNELS 3 Zrotation Yrotation Xrotation
									JOINT RightHandIndex1
									{
										OFFSET -0.622530 -0.000000 -0.000000
										CHANNELS 3 Zrotation Yrotation Xrotation
										End Site
										{
											OFFSET 0.000000 0.000000 0.000000
										}
									}
								}
								JOINT RThumb
								{
									OFFSET 0.000000 0.000000 0.000000
									CHANNELS 3 Zrotation Yrotation Xrotation
									End Site
									{
										OFFSET 0.000000 0.000000 0.000000
									}
								}
							}
						}
					}
				}
			}
		}
	}
}
}
MOTION
Frames: 17
Frame Time: 0.008333
1.902668 16.727424 1.855361 -178.012773 -83.749029 -179.474905 1.238508 -1.933860 -0.343643 -0.453737 -2.067670 -2.561403 -6.293023 -2.051658 1.971618 9.900338 -12.268023 -10.665894 -2.762256 -0.173057 -0.820306 0.000000 0.000000 0.000000 1.865721 15.239482 1.525387 -57.485087 -2.234717 -0.034085 -3.411506 -35.552822 -0.005578 1.573543 2.142677 0.032453 -0.158451 0.056791 0.000000 0.000000 0.000000 0.000000 0.000000 0.000000 0.000000 14.366466 -8.560719 0.811604 70.895077 -6.990365 -18.123328 3.779764 14.492198 0.010628 -3.726132 6.364420 -0.216638 0.131980 -0.076181 -0.000000 0.000000 0.000000 0.000000 0.000000 0.000000 0.000000 
1.642329 16.747380 1.821491 -175.751284 -84.463605 178.301125 1.662886 -2.230725 -0.470929 -0.368523 -2.398959 -2.556818 -6.355621 -2.373417 2.032243 10.055621 -12.898433 -10.728483 -2.787183 -0.174330 -0.831541 0.000000 0.000000 0.000000 2.417620 14.557254 1.561870 -55.262051 -2.776035 -0.570833 -3.324304 -36.970273 -0.005734 1.576373 2.088011 0.031708 -0.162021 0.067126 0.000000 0.000000 0.000000 0.000000 0.000000 0.000000 0.000000 14.858180 -9.457466 0.800201 72.048225 -8.309250 -17.849819 3.848326 14.116038 0.010551 -3.057400 5.925754 -0.166366 0.128665 -0.067822 -0.000000 0.000000 0.000000 0.000000 0.000000 0.000000 0.000000 
1.380076 16.765124 1.785371 -172.983946 -85.201381 175.544719 2.041530 -2.543136 -0.595353 -0.286456 -2.742784 -2.548626 -6.401315 -2.707930 2.104807 10.210543 -13.577781 -10.805827 -2.798556 -0.174268 -0.846363 0.000000 0.000000 0.000000 2.965348 13.918498 1.602762 -52.983850 -3.234326 -1.107850 -3.226928 -38.262176 -0.005903 1.594571 2.033282 0.031053 -0.164723 0.077798 0.000000 0.000000 0.000000 0.000000 0.000000 0.000000 0.000000 15.327703 -10.408491 0.784350 73.149234 -9.674973 -17.143092 3.926796 13.967330 0.010299 -2.176154 5.394632 -0.109191 0.124448 -0.058608 -0.000000 0.000000 0.000000 0.000000 0.000000 0.000000 0.000000 
1.115886 16.780713 1.747141 -169.357921 -85.959153 171.901767 2.374984 -2.870742 -0.717684 -0.206885 -3.098897 -2.537811 -6.429583 -3.055289 2.187231 10.363331 -14.290406 -10.893226 -2.797014 -0.172971 -0.863531 0.000000 0.000000 0.000000 3.503020 13.321689 1.646944 -50.659602 -3.607736 -1.639479 -3.121146 -39.421721 -0.006120 1.626830 1.988007 0.030789 -0.166566 0.088723 0.000000 0.000000 0.000000 0.000000 0.000000 0.000000 0.000000 15.770233 -11.397880 0.764322 74.196698 -11.089115 -16.097166 4.012749 14.016026 0.009793 -1.110736 4.799380 -0.051718 0.119188 -0.048729 -0.000000 0.000000 0.000000 0.000000 0.000000 0.000000 0.000000 
0.849561 16.794393 1.707080 -164.117952 -86.733571 166.620581 2.665956 -3.213558 -0.840316 -0.128588 -3.467569 -2.525286 -6.439985 -3.416044 2.279320 10.512937 -15.026615 -10.987727 -2.783095 -0.170509 -0.882299 0.000000 0.000000 0.000000 4.022158 12.768326 1.692995 -48.299452 -3.904107 -2.155723 -3.009272 -40.442888 -0.006418 1.669987 1.961847 0.031013 -0.167612 0.099761 0.000000 0.000000 0.000000 0.000000 0.000000 0.000000 0.000000 16.182948 -12.416473 0.740240 75.183720 -12.543422 -14.800635 4.102809 14.222593 0.008977 0.093839 4.171009 -0.000347 0.112877 -0.038392 -0.000000 0.000000 0.000000 0.000000 0.000000 0.000000 0.000000 
0.581072 16.806518 1.665526 -155.574348 -87.520424 158.015047 2.911607 -3.574351 -0.966875 -0.051746 -3.851428 -2.512309 -6.431637 -3.792999 2.381271 10.658564 -15.778411 -11.086640 -2.757600 -0.166970 -0.902008 0.000000 0.000000 0.000000 4.514171 12.257624 1.739581 -45.913908 -4.135917 -2.644308 -2.893815 -41.321857 -0.006817 1.719037 1.962722 0.031630 -0.167969 0.110734 0.000000 0.000000 0.000000 0.000000 0.000000 0.000000 0.000000 16.565244 -13.457568 0.712165 76.103444 -14.026058 -13.342583 4.193277 14.543208 0.007827 1.385563 3.536816 0.040121 0.105612 -0.027811 -0.000000 0.000000 0.000000 0.000000 0.000000 0.000000 0.000000 
0.310575 16.817439 1.622822 -139.793726 -88.295377 142.153322 3.079295 -3.957751 -1.100507 0.013464 -4.253044 -2.501230 -6.402813 -4.188426 2.492211 10.798509 -16.533105 -11.185747 -2.722105 -0.162534 -0.921597 0.000000 0.000000 0.000000 4.976405 11.785276 1.784842 -43.517783 -4.314055 -3.095251 -2.776768 -42.057572 -0.007317 1.767662 1.994447 0.032734 -0.167754 0.121456 0.000000 0.000000 0.000000 0.000000 0.000000 0.000000 0.000000 16.918938 -14.508687 0.680704 76.956439 -15.528563 -11.830860 4.281104 14.934987 0.006339 2.717087 2.912366 0.067285 0.097553 -0.017220 -0.000000 0.000000 0.000000 0.000000 0.000000 0.000000 0.000000 
0.037920 16.827610 1.579214 -110.328612 -88.908426 112.594866 3.102608 -4.339186 -1.240737 0.036096 -4.644354 -2.495405 -6.355738 -4.572415 2.610333 10.930751 -17.285922 -11.284932 -2.677535 -0.157286 -0.941131 0.000000 0.000000 0.000000 5.403091 11.371744 1.825108 -41.116144 -4.444584 -3.495418 -2.657449 -42.654378 -0.007903 1.812068 2.058692 0.034429 -0.166960 0.131697 0.000000 0.000000 0.000000 0.000000 0.000000 0.000000 0.000000 17.244448 -15.552023 0.648899 77.742643 -17.029602 -10.335832 4.364733 15.350159 0.004561 4.039430 2.307258 0.080046 0.089023 -0.006918 -0.000000 0.000000 0.000000 0.000000 0.000000 0.000000 0.000000 
-0.236605 16.837304 1.534829 -74.426218 -89.080935 76.583174 3.078143 -4.642235 -1.375778 0.028131 -4.956389 -2.492566 -6.305522 -4.875610 2.726738 11.054218 -18.024193 -11.381420 -2.625098 -0.151397 -0.960123 0.000000 0.000000 0.000000 5.799053 11.052634 1.860369 -38.737653 -4.512348 -3.838971 -2.534613 -43.120189 -0.008532 1.848206 2.150644 0.036415 -0.165340 0.141343 0.000000 0.000000 0.000000 0.000000 0.000000 0.000000 0.000000 17.529254 -16.545075 0.621212 78.465340 -18.510901 -8.958649 4.446526 15.749315 0.002559 5.323002 1.714580 0.078605 0.080542 0.002789 -0.000000 0.000000 0.000000 0.000000 0.000000 0.000000 0.000000 
-0.509201 16.848871 1.491816 -38.640301 -88.329983 40.511657 3.279478 -5.047265 -1.350373 0.079807 -5.389160 -2.457807 -6.240028 -5.299070 2.839377 11.160928 -18.731757 -11.475565 -2.579625 -0.145666 -0.978860 0.000000 0.000000 0.000000 6.145590 10.710897 1.915800 -36.433420 -4.602937 -4.160169 -2.415372 -43.458735 -0.009194 1.877449 2.263081 0.038600 -0.161318 0.153376 0.000000 0.000000 0.000000 0.000000 0.000000 0.000000 0.000000 17.807872 -17.592883 0.564535 79.103339 -19.915917 -7.781602 4.520141 16.095283 0.000248 6.538819 1.124291 0.062956 0.071522 0.012869 -0.000000 0.000000 0.000000 0.000000 0.000000 0.000000 0.000000 
-0.787607 16.858097 1.445787 -32.194294 -87.807975 33.904266 3.417030 -5.308990 -1.470586 0.143200 -5.670603 -2.446868 -6.170856 -5.577640 2.959110 11.268670 -19.413870 -11.550453 -2.513445 -0.138783 -0.992926 0.000000 0.000000 0.000000 6.507957 10.485453 1.947909 -34.207169 -4.600342 -4.347219 -2.298268 -43.725023 -0.009819 1.894864 2.386523 0.040975 -0.158925 0.161913 0.000000 0.000000 0.000000 0.000000 0.000000 0.000000 0.000000 18.005161 -18.514484 0.535619 79.721860 -21.331758 -6.847662 4.598804 16.367923 -0.002146 7.685295 0.512411 0.032810 0.063886 0.021947 -0.000000 0.000000 0.000000 0.000000 0.000000 0.000000 0.000000 
-1.067952 16.866951 1.398834 -28.066638 -87.287703 29.588579 3.515852 -5.565220 -1.581179 0.203552 -5.943787 -2.434279 -6.086851 -5.849463 3.080522 11.361597 -20.061829 -11.612590 -2.440275 -0.131406 -1.004088 0.000000 0.000000 0.000000 6.866503 10.303040 1.974509 -32.081535 -4.564717 -4.446491 -2.182857 -43.923661 -0.010401 1.905093 2.509635 0.043145 -0.156317 0.169921 0.000000 0.000000 0.000000 0.000000 0.000000 0.000000 0.000000 18.153779 -19.395647 0.510109 80.309180 -22.694288 -6.185434 4.678803 16.534943 -0.004684 8.742897 -0.133545 -0.012438 0.057104 0.030742 -0.000000 0.000000 0.000000 0.000000 0.000000 0.000000 0.000000 
-1.350299 16.875256 1.351047 -25.061645 -86.800751 26.361839 3.568790 -5.811818 -1.675793 0.257198 -6.204029 -2.419282 -5.989960 -6.109820 3.199617 11.435776 -20.655115 -11.658480 -2.362328 -0.123775 -1.011501 0.000000 0.000000 0.000000 7.232563 10.164644 1.995094 -30.081157 -4.489362 -4.459327 -2.069147 -44.078279 -0.010903 1.909135 2.619034 0.045010 -0.153497 0.177517 -0.000000 0.000000 0.000000 0.000000 0.000000 0.000000 0.000000 18.251792 -20.211380 0.489671 80.883368 -24.007364 -5.883812 4.764097 16.589074 -0.007358 9.718049 -0.842264 -0.074587 0.051407 0.039269 -0.000000 0.000000 0.000000 0.000000 0.000000 0.000000 0.000000 
-1.634886 16.882753 1.302583 -22.662928 -86.362017 23.709720 3.579170 -6.046806 -1.753464 0.304522 -6.449411 -2.401505 -5.878698 -6.356908 3.317100 11.484790 -21.204111 -11.691395 -2.277285 -0.115646 -1.016055 0.000000 0.000000 0.000000 7.603784 10.074999 2.008579 -28.222679 -4.371653 -4.391940 -1.956796 -44.216127 -0.011301 1.907924 2.704972 0.046274 -0.150425 0.184854 -0.000000 0.000000 0.000000 0.000000 0.000000 0.000000 0.000000 18.283411 -20.971404 0.476497 81.440671 -25.246868 -5.883658 4.854817 16.512345 -0.010129 10.589124 -1.607905 -0.152835 0.047074 0.047570 -0.000000 0.000000 0.000000 0.000000 0.000000 0.000000 0.000000 
-1.921861 16.889191 1.253818 -20.636681 -85.979323 21.402749 3.556876 -6.268792 -1.817918 0.346433 -6.679167 -2.382605 -5.756453 -6.589848 3.429403 11.504615 -21.688661 -11.710131 -2.188549 -0.107355 -1.017420 0.000000 0.000000 0.000000 7.979165 10.035841 2.015759 -26.519335 -4.206946 -4.254901 -1.846865 -44.359856 -0.011568 1.899660 2.757780 0.046735 -0.147100 0.192063 -0.000000 0.000000 0.000000 0.000000 0.000000 0.000000 0.000000 18.251153 -21.651662 0.470940 81.989327 -26.424011 -6.247041 4.953060 16.322027 -0.012994 11.359072 -2.449711 -0.248280 0.044264 0.055598 0.000000 0.000000 0.000000 0.000000 0.000000 0.000000 0.000000 
-2.211212 16.894128 1.205166 -18.888903 -85.653061 19.354708 3.515229 -6.477022 -1.872335 0.385675 -6.893303 -2.363609 -5.623142 -6.808610 3.536593 11.491705 -22.123259 -11.719774 -2.094664 -0.098714 -1.016929 0.000000 0.000000 0.000000 8.350838 10.046666 2.016854 -24.978354 -3.992304 -4.067566 -1.739863 -44.531899 -0.011683 1.880224 2.774315 0.046397 -0.143440 0.199301 0.000000 0.000000 0.000000 0.000000 0.000000 0.000000 0.000000 18.146494 -22.266379 0.473826 82.510648 -27.520105 -6.843494 5.055056 16.025203 -0.015890 11.999796 -3.334249 -0.356025 0.043081 0.063285 0.000000 0.000000 0.000000 0.000000 0.000000 0.000000 0.000000 
-2.503497 16.897246 1.156914 -17.417026 -85.393243 17.592601 3.474674 -6.667984 -1.950742 0.424730 -7.089709 -2.352789 -5.489246 -7.010499 3.633590 11.446556 -22.456570 -11.715640 -2.005566 -0.090750 -1.013100 0.000000 0.000000 0.000000 8.711885 10.111930 2.014961 -23.595589 -3.725772 -3.837594 -1.638918 -44.739782 -0.011595 1.841417 2.746114 0.044760 -0.139543 0.206507 0.000000 0.000000 0.000000 0.000000 0.000000 0.000000 0.000000 17.994937 -22.755637 0.482846 83.032692 -28.582631 -7.931408 5.166585 15.665791 -0.018839 12.539740 -4.313219 -0.480367 0.043682 0.070319 0.000000 0.000000 0.000000 0.000000 0.000000 0.000000 0.000000 
